# xmcd
#
# Track frame offsets:
#	150
#	13511
#	29723
#	44283
#	57493
#	72431
#	87442
#	100501
#	115437
#	133972
#	146389
#	160935
#	178422
#	192232
#	210095
#	222555
#	238541
#	254226
#	268786
#	283048
#	297489
#	312455
#	322801
#
# Disc length: 4490 seconds
#
# Revision: 0
# Processed by: cddbd v1.5.2PL0 Copyright (c) Steve Scherf et al.
# Submitted via: EasyCDDAExtractor 12.0.1.1
#
DISCID=71118817
DTITLE=Various Artist - Como te extraño vol 2
DYEAR=1900
DGENRE=
TTITLE0=Bukis - Ilusion pasajera
TTITLE1=Mario Quintero - Nomas contigo
TTITLE2=Yonic's - Soy yo
TTITLE3=Grupo Alba - Juguete caro
TTITLE4=Kinos - y si lloro que
TTITLE5=Chicanos - Amor perdido
TTITLE6=Daniel Nestor - El plebeyo
TTITLE7=Rigo Tovar - Lamento de amor
TTITLE8=Sabu - Pequeña y fragil
TTITLE9=Los saylors - Sonreir
TTITLE10=Polifaceticos - Cuatro lagrimas
TTITLE11=Revolucion de Emiliano Zapata - Mi forma de sentir
TTITLE12=Freddy's - Pero acuerdate de mi
TTITLE13=Grupo venus - Yo comence la broma
TTITLE14=German y los Angeles Negros - Dejenme si estoy llorando
TTITLE15=Grupo Anhelo - Con la misma espina
TTITLE16=Pasteles verdes - El reloj
TTITLE17=Tommy valle - Vals de las mariposas
TTITLE18=Bondadosos - Hoy te quiero tanto, tanto
TTITLE19=Brios - Yo se que te acordaras
TTITLE20=Los solitarios - Regalame esta noche
TTITLE21=Roberto Jordan -  Dame una señal chiquita
TTITLE22=Strwck - El
EXTD=
EXTT0=
EXTT1=
EXTT2=
EXTT3=
EXTT4=
EXTT5=
EXTT6=
EXTT7=
EXTT8=
EXTT9=
EXTT10=
EXTT11=
EXTT12=
EXTT13=
EXTT14=
EXTT15=
EXTT16=
EXTT17=
EXTT18=
EXTT19=
EXTT20=
EXTT21=
EXTT22=
PLAYORDER=
